# xmcd
#
# Track frame offsets:
#	150
#	17508
#	33730
#	50233
#	62902
#	76853
#	92048
#	109185
#	130114
#	147324
#	176350
#
# Disc length: 2757 seconds
#
# Revision: 1
# Processed by: cddbd v1.5.2PL0 Copyright (c) Steve Scherf et al.
# Submitted via: audiograbber 1.83.01
#
DISCID=930ac30b
DTITLE=Various Artist - ASK1016 Karaoke
DYEAR=1900
DGENRE=
TTITLE0=Nichols, Gary - Unbroken Ground
TTITLE1=Strait, George - Give It Away
TTITLE2=Heartland - I Loved Her First
TTITLE3=Ingram, Jack - Love You
TTITLE4=Owen, Jake - Yee Haw
TTITLE5=Aldean, Jason - Amarillo Sky
TTITLE6=Green, Pat - Feels Just Like It Should
TTITLE7=Rascal Flatts - Life Is A Highway
TTITLE8=Holy, Steve - Brand New Girlfriend
TTITLE9=Swift, Taylor - Tim McGraw
TTITLE10=Data - Data Track
EXTD=
EXTT0=
EXTT1=
EXTT2=
EXTT3=
EXTT4=
EXTT5=
EXTT6=
EXTT7=
EXTT8=
EXTT9=
EXTT10=
PLAYORDER=
